<svg xmlns="http://www.w3.org/2000/svg" version="1.1" xmlns:xlink="http://www.w3.org/1999/xlink" xmlns:svgjs="http://svgjs.dev/svgjs" width="100%" height="100%" viewBox="0 0 1000 600"><rect width="1000" height="600" x="0" y="0" fill="#"/><g><circle r="166.66666666666666" cx="303.5603586832682" cy="325.7826085770081" fill="#00d08b" transform="matrix(0.9131170060462792,0,0,0.913117006046279,0,2.522337442105254)"/><path d="M228.38725900928122 357.7265789877886L228.38725900928122 357.7265789877886Q224.77082464667447 357.38540593471254 221.99595048165548 357.1579572326618Q219.1983314464314 356.907763660406 216.4234572814124 356.4073765158944L216.4234572814124 356.4073765158944Q214.12622539069994 355.9297342415878 211.669779408552 355.2701330056407Q209.213333426404 354.6105317696935 206.91610153569155 353.63250235087537L206.91610153569155 353.63250235087537Q204.30044146210807 352.31329987898107 203.5726056155457 350.0160679882686Q202.82202489877827 347.74158096776125 203.48162613472542 345.1031760239727L203.48162613472542 345.1031760239727Q204.64161451518416 339.87185587680574 210.53253589829828 339.87185587680574L210.53253589829828 339.87185587680574Q214.7858266266471 340.03106996824124 219.1983314464314 339.87185587680574Q223.6335811364208 339.7126417853702 227.88687186476957 340.03106996824124L227.88687186476957 340.03106996824124Q231.66252031881183 340.19028405967674 233.7095586372685 338.80284697716723Q235.75659695572514 337.4154098946578 236.89384046597883 333.8217204022561L236.89384046597883 333.8217204022561Q242.62554775765742 316.44463956557973 247.62941920277365 299.0903035991084Q252.6105457776848 281.7359676326371 255.5673789043444 263.72203043021864L255.5673789043444 263.72203043021864Q256.386194231727 257.8311090471045 260.63948496007583 253.57781831875573L260.63948496007583 253.57781831875573Q263.91474626960655 250.1205980475845 267.84960881508425 250.93941337496716Q271.78447136056207 251.75822870234984 273.42210201532737 256.3526924837747L273.42210201532737 256.3526924837747Q274.7185596170166 260.28755502925253 275.28718137214344 264.449866276781Q275.87854799747527 268.6349223945146 276.697363324858 272.72899903142786L276.697363324858 272.72899903142786Q282.9067128908431 301.7059636726919 289.4572355099044 330.70567318416096L289.4572355099044 330.70567318416096Q290.1168367458515 333.9809344936916 292.1638750643082 335.04994339333007Q294.21091338276483 336.0962074227635 297.16774650942443 335.7777792398925L297.16774650942443 335.7777792398925Q298.96459125562524 335.4593510570214 300.44300781895504 335.2091574847656Q301.89867951207975 334.9589639125098 303.53631016684506 335.1181780039453L303.53631016684506 335.1181780039453Q307.31195862088725 335.27739209538083 309.8593840838556 337.5746239860933Q312.3840646766188 339.87185587680574 312.5432787680543 343.14711718633635L312.5432787680543 343.14711718633635Q312.88445182113037 346.2631644044315 310.7464340218535 349.12901805027076Q308.63116109278155 351.99487169611007 305.17394082161036 352.8136870234927L305.17394082161036 352.8136870234927Q303.37709607540955 353.1321152063637 301.26182314633763 353.2230946871841Q299.12380534706074 353.2913292977993 297.16774650942443 353.2913292977993L297.16774650942443 353.2913292977993Q290.276050837287 353.63250235087537 291.9136814920523 360.34223906137214L291.9136814920523 360.34223906137214Q293.2328839639466 365.9147322616152 294.7795351378917 371.3052665002177Q296.3489311820417 376.7185456090253 296.98578754778384 382.4502529007039L296.98578754778384 382.4502529007039Q298.30499001967803 388.6823473368941 295.84854403753013 395.5512981388264L295.84854403753013 395.5512981388264Q295.1889428015829 397.34814288502724 292.732496819435 399.0767530206128Q290.276050837287 400.78261828599335 288.3199919996507 400.78261828599335L288.3199919996507 400.78261828599335Q286.5231472534498 400.78261828599335 284.2259153627374 399.0767530206128Q281.928683472025 397.34814288502724 280.7914399617713 395.5512981388264L280.7914399617713 395.5512981388264Q279.472237489877 393.7544533926255 279.22204391762114 391.13879331904207Q278.9718503453654 388.5003883752535 278.6534221624943 385.88472830167L278.6534221624943 385.88472830167Q277.9938209265472 379.6753787356849 277.1750055991645 373.4432842994947Q276.3561902717819 367.2111898633044 275.5373749443992 361.1610543887548L275.5373749443992 361.1610543887548Q275.05973267009267 357.22619184327704 273.0809289622513 355.42934709707623Q271.12487012461486 353.63250235087537 267.03079348770166 354.11014462518193L267.03079348770166 354.11014462518193Q265.39316283293635 354.2921035868225 263.6645526973507 354.2011241060022Q261.95868743197013 354.11014462518193 260.13909781556424 354.11014462518193L260.13909781556424 354.11014462518193Q255.2262058512683 354.11014462518193 252.70152525850511 354.769745861129Q250.15409979553684 355.42934709707623 248.85764219384762 357.6355995069684Q247.53843972195335 359.84185191686055 246.06002315862355 364.75474388115646L246.06002315862355 364.75474388115646Q244.42239250385825 371.14605240878217 242.53456827683712 377.28716736415214Q240.66948892002105 383.42828231952205 238.53147112074413 389.5011626642767L238.53147112074413 389.5011626642767Q237.05305455741433 393.913667484061 234.43739448383084 397.34814288502724L234.43739448383084 397.34814288502724Q232.2993766845539 400.3049760116868 229.5245025195349 400.62340419455785Q226.7496283545159 400.96457724763394 223.6335811364208 399.80458886717514L223.6335811364208 399.80458886717514Q220.51753391832568 398.6673453569215 218.97088274438065 396.52932755764454Q217.40148670023058 394.4140546285727 218.0610879361777 391.29800741047757L218.0610879361777 391.29800741047757Q219.69871859094303 385.22512706572286 221.58654281796416 379.42518516342903Q223.47436704498526 373.6024983909302 225.1119976997506 367.71157700781606L225.1119976997506 367.71157700781606Q225.93081302713324 365.4143451171036 226.6586488736956 362.8896645243404Q227.38648472025798 360.34223906137214 228.38725900928122 357.7265789877886ZM297.64538878373094 349.6976398053976L297.64538878373094 349.6976398053976Q299.44223352993174 349.6976398053976 301.26182314633763 349.7886192862179Q303.05866789253855 349.8568538968331 304.53708445586835 349.19725266088597L304.53708445586835 349.19725266088597Q305.83354205755745 348.5603962951439 307.47117271232275 347.15021434242936Q309.10880336708817 345.76277725991986 308.94958927565256 344.1251466051545L308.94958927565256 344.1251466051545Q308.79037518421717 342.6467300418247 307.0617650486315 341.75968010382684Q305.35589978325095 340.8498852956239 303.87748321992115 340.5314571127529L303.87748321992115 340.5314571127529Q301.73946542064425 340.03106996824124 299.28301943849624 340.12204944906154Q296.8265734563482 340.19028405967674 294.37012747420033 340.03106996824124L294.37012747420033 340.03106996824124Q291.0948661646697 339.7126417853702 288.72939966334206 338.1432457412201Q286.3411882918092 336.5965945672751 285.5223729644266 333.16211916630897L285.5223729644266 333.16211916630897Q281.928683472025 318.74187145629213 279.06282982618563 303.593787899713Q276.1969761803464 288.44570434313385 272.9217148708158 274.04820150332216L272.9217148708158 274.04820150332216Q272.26211363486857 270.77294019379156 271.78447136056207 267.90708654795225Q271.28408421605036 265.04123290211294 270.78369707153877 261.92518568401783L270.78369707153877 261.92518568401783Q270.46526888866777 260.28755502925253 268.9186177147227 258.3997308022314Q267.34922167057266 256.5119065752103 265.71159101580736 256.3526924837747L265.71159101580736 256.3526924837747Q264.23317445247756 255.85230533926313 262.77750275935284 258.1495372299756Q261.29908619602304 260.44676912068803 260.3892913878201 263.1534086750918Q259.50224144982224 265.8600482294956 259.16106839674603 266.67886355687824L259.16106839674603 266.67886355687824Q254.58934948552624 283.53281237883795 249.90390622328104 300.5687201624382Q245.2412078312409 317.6046279460385 240.48752995838046 334.64053572963877L240.48752995838046 334.64053572963877Q238.84989930361516 340.6906712041884 236.16600461941644 342.3283018589537Q233.4593650650127 343.965932513719 226.90884244595142 343.4655453692074L226.90884244595142 343.4655453692074Q223.29240808334467 343.14711718633635 219.69871859094303 342.8286890034653Q216.10502909854137 342.4875159503892 212.64780882737014 342.6467300418247L212.64780882737014 342.6467300418247Q211.35135122568093 342.8286890034653 209.78195518153083 343.647504330848Q208.23530400758582 344.46631965823065 207.9168758247148 345.92199135135536L207.9168758247148 345.92199135135536Q207.7349168630742 347.40040791468516 209.3043129072243 348.7196103865794Q210.8509640811693 350.0160679882686 212.01095246162808 350.3572410413447L212.01095246162808 350.3572410413447Q214.9450407180826 351.1760563687274 217.9701084553574 351.4262499409832Q221.0179210628373 351.6536986430339 223.95200931929182 351.8356576046745L223.95200931929182 351.8356576046745Q230.34331784691756 352.4725139704166 232.07192798250318 354.8607253419494Q233.7777932478837 357.22619184327704 232.2993766845539 363.29907218803174L232.2993766845539 363.29907218803174Q231.9809485016829 364.59552978972096 231.32134726573574 365.9829668722304Q230.6617460297886 367.393148824945 230.18410375548203 368.68960642663427L230.18410375548203 368.68960642663427Q228.38725900928122 373.94367144400627 226.4994347822601 379.17499159117324Q224.61161055523897 384.4063117383402 222.81476580903814 389.5011626642767L222.81476580903814 389.5011626642767Q222.155164573091 391.6164355933486 222.06418509227072 393.59523930119Q221.99595048165548 395.5512981388264 224.61161055523897 396.68854164908004L224.61161055523897 396.68854164908004Q227.38648472025798 397.84853002953884 229.77469609179073 397.0979493127714Q232.1401625931184 396.37011346620903 233.30015097357716 393.7544533926255L233.30015097357716 393.7544533926255Q234.59660857526637 391.29800741047757 235.50640338346932 388.6823473368941Q236.3934533214672 386.0439423931055 237.05305455741433 383.42828231952205L237.05305455741433 383.42828231952205Q238.84989930361516 377.2189327535369 240.32831586694496 370.98683831734667Q241.80673243027476 364.75474388115646 243.28514899360457 358.3861802237358L243.28514899360457 358.3861802237358Q245.58238088431702 350.1980269499092 254.58934948552624 349.8568538968331L254.58934948552624 349.8568538968331Q258.34225306936344 349.6976398053976 262.27711561484114 349.6976398053976Q266.21197816031895 349.6976398053976 269.9648817441562 349.5384257139621L269.9648817441562 349.5384257139621Q277.6753927436762 349.03803856945046 278.9718503453654 356.4073765158944L278.9718503453654 356.4073765158944Q279.9726246343886 362.4802568606491 280.70046048095094 368.4394128543784Q281.4282963275133 374.42131371831283 282.0878975634605 380.4941940630675L282.0878975634605 380.4941940630675Q282.4290706165366 383.109854136651 282.65651931858736 385.8164936910548Q282.9067128908431 388.5003883752535 283.7255282182258 391.13879331904207L283.7255282182258 391.13879331904207Q284.0667012713019 392.77642397380737 285.3631588729911 394.3230751477524Q286.6823613448854 395.86972632169744 288.7976342739572 395.5512981388264L288.7976342739572 395.5512981388264Q290.7764379817986 395.2328699559553 291.84544688143717 394.0046469648814Q292.89171091087053 392.77642397380737 293.2328839639466 391.4572215019131L293.2328839639466 391.4572215019131Q293.7105262382531 389.0007755197651 293.8924851998937 386.29413596536136Q294.0516992913293 383.58749641095756 293.5513121468176 381.4722234818857L293.5513121468176 381.4722234818857Q292.4140686365639 375.399343137131 290.68545850097837 369.44018714340166Q288.9795932355978 363.45828627946725 287.501176672268 357.38540593471254L287.501176672268 357.38540593471254Q286.6823613448854 353.63250235087537 287.9788189465746 351.8356576046745Q289.2980214184689 350.0160679882686 292.89171091087053 349.6976398053976L292.89171091087053 349.6976398053976Q294.0516992913293 349.5384257139621 295.2799222824033 349.6066603245773Q296.5081452734772 349.6976398053976 297.64538878373094 349.6976398053976ZM253.77053415814356 340.6906712041884L253.77053415814356 340.6906712041884Q250.31331388697234 341.0090993870594 249.58547804040998 339.5534276939347Q248.85764219384762 338.0750111306049 249.4944985595897 335.27739209538083L249.4944985595897 335.27739209538083Q251.63251635886664 328.249227202013 253.58857519650297 321.28929691926044Q255.5673789043444 314.32936663650787 257.68265183341623 307.27845687293495L257.68265183341623 307.27845687293495Q258.34225306936344 305.3223980352986 258.84264021387503 303.11614562540643Q259.32028248818153 300.88714834530924 260.7304644408962 299.43147665218453Q262.11790152340564 297.9530600888547 265.05198977986015 297.9530600888547L265.05198977986015 297.9530600888547Q269.32802537841405 297.9530600888547 270.46526888866777 301.06910730694983Q271.6025123989215 304.16240965483985 272.26211363486857 307.11924278149945L272.26211363486857 307.11924278149945Q273.8997442896339 313.5105513091252 274.8777737084521 319.97009444736614Q275.87854799747527 326.45238245581214 276.697363324858 333.00290507487347L276.697363324858 333.00290507487347Q277.1750055991645 337.0969817117867 275.469140333784 338.734612366552Q273.74053019819837 340.37224302131733 269.64645356128506 340.5314571127529L269.64645356128506 340.5314571127529Q267.50843576200816 340.6906712041884 265.39316283293635 340.59969172336804Q263.25514503365935 340.5314571127529 261.13987210458754 340.5314571127529L261.13987210458754 340.5314571127529Q261.13987210458754 340.5314571127529 258.34225306936344 340.5314571127529Q255.5673789043444 340.5314571127529 253.77053415814356 340.6906712041884ZM255.72659299577992 335.4593510570214L270.46526888866777 335.4593510570214Q269.9648817441562 331.52448851154367 269.32802537841405 326.20218888355635Q268.66842414246696 320.8798892555691 268.00882290651975 315.625824238197Q267.34922167057266 310.39450409103006 266.6213858240103 306.96002869006395Q265.87080510724286 303.5255532890978 265.05198977986015 303.5255532890978L265.05198977986015 303.5255532890978Q263.59631808673544 303.5255532890978 262.3680950956615 306.96002869006395Q261.13987210458754 310.39450409103006 259.97988372412874 315.625824238197Q258.84264021387503 320.8798892555691 257.7736313142366 326.20218888355635Q256.70462241459813 331.52448851154367 255.72659299577992 335.4593510570214L255.72659299577992 335.4593510570214ZM399.3377034706159 268.47570830307905L399.3377034706159 268.47570830307905Q401.1572930870218 269.61295181333276 402.6129647801465 271.9101837040452Q404.0913813434763 274.20741559475766 403.9321672520408 276.0042603409585L403.9321672520408 276.0042603409585Q403.7729531606053 277.8011050871593 401.7941494527639 279.7799087950008Q399.8380906151275 281.7359676326371 397.8820317774912 282.55478296001974L397.8820317774912 282.55478296001974Q395.0844127422671 283.53281237883795 391.9001309135567 283.69202647027345Q388.6931042146414 283.87398543191404 385.59980186675136 284.3516277062206L385.59980186675136 284.3516277062206Q382.32454055722064 284.5108417976561 380.7551445130706 286.1484724524214Q379.20849333912554 287.78610310718676 379.36770743056115 291.7209656526645L379.36770743056115 291.7209656526645Q380.02730866650825 303.6847673805333 380.02730866650825 315.5575896275818Q380.02730866650825 327.43041187463035 380.18652275794375 339.5534276939347L380.18652275794375 339.5534276939347Q380.18652275794375 347.74158096776125 380.34573684937925 355.99796885220303Q380.50495094081487 364.2771016068499 379.86809457507275 372.46525488067647L379.86809457507275 372.46525488067647Q379.20849333912554 381.1310504288096 375.023437221392 387.5223589564353Q370.8611259738635 393.913667484061 364.1286443931617 397.1889287935917Q357.4189076826649 400.46419010312235 348.75311213453176 399.64537477573964L348.75311213453176 399.64537477573964Q344.31786244454236 399.32694659286864 339.74614353332254 397.279908274412Q335.15167975189763 395.2328699559553 331.876418442367 392.1168227378602L331.876418442367 392.1168227378602Q329.2607583687835 389.3192037026361 325.8262829678174 384.99767836367215Q322.3690626966462 380.65340815450304 320.00359619531844 375.7405161902071Q317.6381296939908 370.82762422591117 318.1157719682974 366.7335475889979L318.1157719682974 366.7335475889979Q318.4569450213735 363.9359285537738 320.98162561413665 361.47948257162585Q323.5290510771049 359.02303658947784 325.1666817318702 358.70460840660684L325.1666817318702 358.70460840660684Q327.2819546609421 358.3861802237358 329.9203596047307 359.5234237339895Q332.5360196783141 360.66066724424314 334.65129260738604 362.2982978990085L334.65129260738604 362.2982978990085Q336.47088222379193 363.77671446233825 337.76733982548114 366.07394635305076Q339.08654229737544 368.37117824376315 340.72417295214075 370.4864511728351L340.72417295214075 370.4864511728351Q341.86141646239446 372.1240818276004 342.9304253620329 374.0119060546215Q343.99943426167135 375.89973028164263 345.47785082500116 377.0369737918963L345.47785082500116 377.0369737918963Q347.27469557120196 378.1969621723551 349.57192746191447 379.26597107199353Q351.8464144824218 380.3122351014269 353.66600409882767 379.8345928271204L353.66600409882767 379.8345928271204Q355.3036347535931 379.4934197740443 357.00950001897354 377.44638145558764Q358.7381101545592 375.399343137131 358.8973242459947 373.4432842994947L358.8973242459947 373.4432842994947Q360.0345677562484 366.23316044448626 360.94436256445135 358.79558788742713Q361.8541573726543 351.3352704601629 361.8541573726543 343.8067184222835L361.8541573726543 343.8067184222835Q361.8541573726543 330.54645909272546 361.1945561367071 317.2634548929624Q360.53495490076 304.00319556340435 360.216526717889 290.7429362338463L360.216526717889 290.7429362338463Q360.0345677562484 286.96728777980405 358.3969371014831 285.67083017811484Q356.7593064467178 284.3516277062206 353.0064028628806 284.6928007592967L353.0064028628806 284.6928007592967Q347.93429680714917 285.17044303360325 342.7712112705974 285.10220842298804Q337.60812573404564 285.01122894216775 332.3768055868786 284.8520148507322L332.3768055868786 284.8520148507322Q330.2387877876017 284.6928007592967 328.03253537770956 283.87398543191404Q325.8262829678174 283.0551701045314 323.6882651685404 282.05439581550814L323.6882651685404 282.05439581550814Q318.7753732042445 279.7799087950008 320.5722179504453 273.8662425416816L320.5722179504453 273.8662425416816Q322.0506345137751 268.47570830307905 327.6231277140182 268.47570830307905L327.6231277140182 268.47570830307905L363.9694303017261 268.47570830307905Q363.9694303017261 268.47570830307905 367.4039057026923 268.31649421164354Q370.8611259738635 268.13453525000295 375.93323202959493 267.97532115856745Q381.00533808532646 267.81610706713195 386.1684236218782 267.81610706713195Q391.33150915843 267.81610706713195 395.0844127422671 267.90708654795225Q398.8600611963093 267.97532115856745 399.3377034706159 268.47570830307905ZM363.4917880274196 373.1248561166236L363.4917880274196 373.1248561166236Q362.6729727000369 377.53736093640794 360.12554723706864 380.72164276511825Q357.5781217741004 383.9286694640337 352.8471887714451 384.9066988828518L352.8471887714451 384.9066988828518Q348.75311213453176 385.88472830167 345.7052995270519 383.9286694640337Q342.68023178977705 381.94986575619225 339.74614353332254 376.8777597004608L339.74614353332254 376.8777597004608Q338.26772696999274 374.42131371831283 337.0395039789188 371.8966331255496Q335.8112809878447 369.34920766258136 334.1736503330794 367.0519757718689L334.1736503330794 367.0519757718689Q332.85444786118524 364.93670284279705 330.7391749321133 363.20809270721145Q328.6011571328364 361.47948257162585 325.4851099147413 362.7986850435201L325.4851099147413 362.7986850435201Q322.7102357497223 363.9359285537738 322.30082808603095 366.6425681081776Q321.8914204223396 369.34920766258136 322.7102357497223 372.30604078924097L322.7102357497223 372.30604078924097Q324.5070804959231 377.855789119279 328.03253537770956 382.04084523701255Q331.557990259496 386.2259013547461 336.12970917071584 389.8195908471478L336.12970917071584 389.8195908471478Q347.93429680714917 399.14498763122805 361.6721984110137 393.0948521566784L361.6721984110137 393.0948521566784Q368.0635069386394 390.1380190300188 371.4297477289904 384.7474847914163Q374.77324364913625 379.3342056826088 374.95520261077684 372.30604078924097L374.95520261077684 372.30604078924097Q375.27363079364784 356.907763660406 375.1826513128275 341.41850705075075Q375.11441670221234 325.95199531130055 375.11441670221234 310.5537181824656L375.11441670221234 310.5537181824656Q375.11441670221234 305.9819992712458 374.95520261077684 301.38753548982083Q374.77324364913625 296.7930717083959 374.45481546626513 292.2213527971761L374.45481546626513 292.2213527971761Q373.13561299437083 281.2355804881255 383.78021225034547 280.5987241223834L383.78021225034547 280.5987241223834Q386.5778312855696 280.2575510693073 389.4436849314088 280.4167651607428Q392.3095385772481 280.5987241223834 395.2436268337026 280.2575510693073L395.2436268337026 280.2575510693073Q396.5628293055969 280.0983369778718 398.29143944118243 279.27952165048913Q399.997304706563 278.4607063231065 400.1565187979985 276.8230756683412L400.1565187979985 276.8230756683412Q400.3384777596391 275.1854450135759 398.5188881432332 274.11643611393737Q396.7220433970324 273.0474272142989 395.4255857953432 272.56978493999236L395.4255857953432 272.56978493999236Q393.9471692320134 271.9101837040452 392.05934500499234 272.06939779548077Q390.1715207779712 272.22861188691627 388.3746760317704 272.22861188691627L388.3746760317704 272.22861188691627Q373.13561299437083 272.41057084855686 357.82831534635625 272.56978493999236Q342.52101769834155 272.72899903142786 327.1227405695066 272.88821312286336L327.1227405695066 272.88821312286336Q324.3478664044876 272.88821312286336 323.847479259976 274.20741559475766Q323.3698369856694 275.5038731964469 324.5070804959231 277.32346281285277L324.5070804959231 277.32346281285277Q325.6443240061768 278.4607063231065 327.21372005032686 279.5979498333602Q328.7603712242719 280.75793821381893 330.2387877876017 280.91715230525443L330.2387877876017 280.91715230525443Q342.83944588121255 281.7359676326371 355.4628488450286 281.4175394497661L355.4628488450286 281.4175394497661Q360.6941689921955 281.07636639669 362.6729727000369 282.64576244084003Q364.6290315376733 284.19241361478504 364.7882456291088 289.2645196705165L364.7882456291088 289.2645196705165Q364.7882456291088 292.88095403312326 364.7882456291088 300.0000984073113Q364.7882456291088 307.11924278149945 364.7882456291088 316.0352319018884Q364.7882456291088 324.9739658924824 364.72001101849355 334.2993626765626Q364.6290315376733 343.647504330848 364.4698174462378 351.8356576046745Q364.3106033548023 360.02381087850114 364.06040978254646 365.7555181701797Q363.8102162102906 371.4872254618583 363.4917880274196 373.1248561166236Z " fill="black" transform="matrix(0.9131170060462792,0,0,0.913117006046279,0,2.522337442105254)"/><path d="M596.33975839331 266.83807764831374L596.33975839331 266.83807764831374Q601.571078540477 267.1565058311848 607.7121934958469 269.0443300582059Q613.8533084512168 270.93215428522706 619.9261887959715 274.6850578690642L619.9261887959715 274.6850578690642Q625.4986819962146 278.1422781402355 629.0923714886162 283.3735982874024Q632.6860609810179 288.6049184345694 634.8240787802948 294.336625726248L634.8240787802948 294.336625726248Q635.9613222905485 297.1342447614721 635.2334864439862 300.3185265901824Q634.5056505974238 303.5255532890978 631.3896033793287 305.1631839438631L631.3896033793287 305.1631839438631Q628.5919843441046 306.80081459862845 625.7261306982654 305.9819992712458Q622.860277052426 305.1631839438631 621.0634323062252 301.8879226343325L621.0634323062252 301.8879226343325Q617.9473850881301 295.9742563810133 614.6721237785995 291.8119451334848Q611.3968624690689 287.6268890157512 606.3247564133374 285.51161608667934Q601.2526503576058 283.3735982874024 592.7460689009083 284.03319952334954L592.7460689009083 284.03319952334954Q588.9704204468661 284.19241361478504 585.1265373822085 286.55788011611276Q581.2826543175512 288.9460914876455 578.485035282327 292.3805668886116Q575.7101611173081 295.8150422895778 575.0505598813609 299.74990483505553L575.0505598813609 299.74990483505553Q574.7321316984899 301.22832139838533 575.1415393621812 302.9341866637659Q575.5509470258725 304.6627967993515 576.1878033916146 306.3004274541168L576.1878033916146 306.3004274541168Q578.9854224268387 312.3505629286664 583.9665490017499 316.5356190464Q588.9704204468661 320.7206751641336 595.0205559214156 323.81397751202365L595.0205559214156 323.81397751202365Q599.9334478857116 326.2704234941716 604.9373193308278 328.4994207742688Q609.9411907759442 330.70567318416096 614.85408274024 333.16211916630897L614.85408274024 333.16211916630897Q624.998294851703 338.55265340491144 631.1394098070729 346.67257206812275Q637.2805247624428 354.769745861129 637.7809119069544 366.8927616804334L637.7809119069544 366.8927616804334Q638.0993400898254 374.42131371831283 634.1644775443477 381.2220299096299Q630.2296149988699 388.02274610094696 623.770071860629 392.5944650121668Q617.310528722388 397.1889287935917 609.6000177228681 397.84853002953884L609.6000177228681 397.84853002953884Q598.1366031395108 398.98577353979255 588.1516051194834 397.91676464015404Q578.166607099456 396.8705006107206 569.3188525896823 390.9568343574015L569.3188525896823 390.9568343574015Q567.6812219349171 389.9788049385833 564.4969401062066 387.0447166821288Q561.2899134072912 384.0878835554692 558.2648456700164 379.9938069185559Q555.2397779327416 375.89973028164263 554.0115549416677 371.2370318896025Q552.7833319505936 366.57433349756235 554.8986048796655 362.13908380757294L554.8986048796655 362.13908380757294Q557.0366226789425 358.20422126209525 560.3118839884731 357.31717132409733Q563.5871452980037 356.4073765158944 566.3620194630226 359.682637825425L566.3620194630226 359.682637825425Q568.6592513537352 362.2982978990085 571.5251049995744 365.7555181701797Q574.3909586454138 369.18999357114586 576.8474046275618 371.4872254618583L576.8474046275618 371.4872254618583Q583.5571413380585 378.0377480809196 591.745294611885 379.58439925486454Q599.9334478857116 381.1310504288096 608.6219883040498 380.4941940630675L608.6219883040498 380.4941940630675Q612.3976367580921 380.1530210099914 614.85408274024 377.44638145558764Q617.310528722388 374.7624867713889 617.7881709966946 371.14605240878217L617.7881709966946 371.14605240878217Q619.1073734685889 364.43631569828545 616.2415198227495 359.20499555111843Q613.3756661769103 353.95093053374643 607.3027858321556 350.67566922421577L607.3027858321556 350.67566922421577Q599.1146325583289 345.92199135135536 590.8582446738872 341.25929295931525Q582.5791119192403 336.5965945672751 574.7321316984899 331.3652744201081L574.7321316984899 331.3652744201081Q566.8624066075344 326.1112094027361 562.6091158791855 317.5136484652182Q558.3558251508367 308.9160875277003 557.1958367703779 299.74990483505553L557.1958367703779 299.74990483505553Q556.3770214429953 291.7209656526645 559.6522827525259 285.7390647887301Q562.9275440620565 279.7799087950008 568.6592513537352 275.1854450135759L568.6592513537352 275.1854450135759Q573.7313574094666 271.09136837666256 580.2136454179126 268.7259018753349Q586.6731885561536 266.33769050380215 596.33975839331 266.83807764831374ZM599.9334478857116 395.05091099431473L599.9334478857116 395.05091099431473L602.3898938678595 395.05091099431473Q612.056463705016 394.4140546285727 619.6759952237156 391.13879331904207Q627.2955267424154 387.8635320095114 631.7080315621997 378.6746044466616L631.7080315621997 378.6746044466616Q634.1644775443477 373.6024983909302 634.0962429337325 367.3021693441247Q634.0052634529121 361.0018402973193 631.4578379899439 354.8607253419494Q628.9331573971807 348.7196103865794 623.8610513414493 344.1251466051545L623.8610513414493 344.1251466051545Q615.4909391059821 336.4373804758396 604.5279116671366 332.34330383892626L604.5279116671366 332.34330383892626Q596.0213302104389 329.06804252939565 588.5610127831748 324.06417108427945Q581.1006953559105 319.0830445093683 575.2097739727964 312.0321347457954L575.2097739727964 312.0321347457954Q570.9564832444477 306.6188556369878 571.0474627252679 300.81891373469404Q571.115697335883 294.9962269621951 574.7321316984899 290.08333499789916Q578.3258211908916 285.17044303360325 584.2167425740057 282.7139970514553L584.2167425740057 282.7139970514553Q592.0864676649611 279.43873574192463 598.1366031395108 279.7799087950008Q604.2094834842654 280.0983369778718 608.5310088232295 282.46380347919944Q612.8752790323987 284.8520148507322 615.7411326782379 287.9680620688273Q618.6069863240772 291.06136441671737 619.9261887959715 293.19938221599426L619.9261887959715 293.19938221599426Q621.2226463976607 295.1554410536306 622.3826347781195 297.1342447614721Q623.5198782883732 299.0903035991084 624.998294851703 300.88714834530924L624.998294851703 300.88714834530924Q625.4986819962146 301.5467495812564 626.7269049872885 301.8879226343325Q627.9551279783626 302.2063508172035 628.5919843441046 302.047136725768L628.5919843441046 302.047136725768Q629.4107996714873 301.5467495812564 630.2296149988699 300.4777406816179Q631.0484303262525 299.43147665218453 631.0484303262525 298.4307023631613L631.0484303262525 298.4307023631613Q631.2303892878932 297.2934588529076 630.7300021433815 296.06523586183357Q630.2296149988699 294.83701287075957 629.9111868159989 293.6997693605059L629.9111868159989 293.6997693605059Q627.9551279783626 285.9892583609859 621.632054061352 280.91715230525443Q615.3317250145466 275.84504624952297 606.8933781684642 273.388600267375Q598.4777761925869 270.93215428522706 590.0394293465046 271.40979655953356Q581.6010825004222 271.9101837040452 575.2097739727964 275.68583215808746L575.2097739727964 275.68583215808746Q569.9784538256295 278.7791345059775 566.2937848524075 284.03319952334954Q562.6091158791855 289.2645196705165 561.3808928881116 295.4966141067067Q560.1526698970375 301.7059636726919 562.2679428261094 308.0972722003176L562.2679428261094 308.0972722003176Q565.2247759527689 317.1042408015268 571.5251049995744 322.92692757402574Q577.8254340463799 328.72686947631956 585.3767309544644 333.48054734918L585.3767309544644 333.48054734918Q591.5860805204496 337.4154098946578 598.2275826203311 340.7816506850087Q604.8463398500076 344.1251466051545 611.3968624690689 347.74158096776125L611.3968624690689 347.74158096776125Q618.1293440497707 351.3352704601629 620.8132387339693 357.1579572326618Q623.5198782883732 362.95789913495565 623.2014501055021 370.3272370813995L623.2014501055021 370.3272370813995Q622.860277052426 375.399343137131 619.2665875600244 379.7436133463001Q615.6728980676227 384.0878835554692 610.5780471416862 384.5882706999808L610.5780471416862 384.5882706999808Q598.9554184668934 385.566300118799 588.651992263995 382.6094669921394Q578.3258211908916 379.6753787356849 570.6380550615767 369.66763584545237L570.6380550615767 369.66763584545237Q568.3408231708642 366.39237453592176 565.3839900442046 363.9359285537738L565.3839900442046 363.9359285537738Q564.7243888082575 363.11711322639115 563.2687171151327 362.3892773798288Q561.7903005518029 361.66144153326644 560.6303121713441 361.97986971613744L560.6303121713441 361.97986971613744Q559.993455805602 362.4802568606491 558.9926815165787 363.77671446233825Q558.0146520977606 365.09591693423255 558.0146520977606 367.55236291638056L558.0146520977606 367.55236291638056Q558.0146520977606 370.168022989964 558.9244469059636 372.3742753998562Q559.8114968439614 374.58052780974833 561.1306993158557 376.8777597004608L561.1306993158557 376.8777597004608Q565.54320413564 383.76945537259815 571.8662780526505 387.4541243458201Q578.166607099456 391.13879331904207 585.4449655650795 392.77642397380737Q592.7460689009083 394.4140546285727 599.9334478857116 395.05091099431473ZM677.5616898956285 334.64053572963877L677.7209039870639 334.64053572963877L677.7209039870639 294.01819754337697Q677.7209039870639 287.9680620688273 675.7648451494276 286.1484724524214Q673.8087863117913 284.3516277062206 667.8951200584721 284.6928007592967L667.8951200584721 284.6928007592967Q664.1422164746349 284.8520148507322 660.2983334099775 284.6018212784764Q656.4317054751149 284.3516277062206 652.6788018912778 283.53281237883795L652.6788018912778 283.53281237883795Q649.7219687646182 282.7139970514553 647.4247368739058 280.66695873299864Q645.1502498533983 278.619920414542 645.7871062191404 274.52584377762867L645.7871062191404 274.52584377762867Q646.4467074550876 270.93215428522706 649.1533470094913 269.36275824107696Q651.8599865638951 267.81610706713195 655.1352478734258 267.65689297569645L655.1352478734258 267.65689297569645Q659.5477526932101 267.1565058311848 663.9830023831994 266.906312258929Q668.3955072029838 266.67886355687824 672.808012022768 266.49690459523765L672.808012022768 266.49690459523765Q694.5975976792288 266.33769050380215 716.2052243740488 266.49690459523765L716.2052243740488 266.49690459523765Q718.0248139904547 266.49690459523765 720.1400869195267 266.83807764831374Q722.2781047188035 267.1565058311848 723.0969200461863 268.31649421164354L723.0969200461863 268.31649421164354Q724.7345507009516 270.1133389578444 725.80355960059 272.56978493999236Q726.8498236300235 275.0262309221403 727.031782591664 277.48267690428827L727.031782591664 277.48267690428827Q727.1909966830996 280.5987241223834 725.0529788838226 282.05439581550814Q722.9377059547508 283.53281237883795 719.9808728280912 283.69202647027345L719.9808728280912 283.69202647027345Q715.7275820997423 283.87398543191404 711.4742913713935 283.94222004252924Q707.1982557728396 284.03319952334954 702.9449650444909 283.87398543191404L702.9449650444909 283.87398543191404Q699.1920614606537 283.53281237883795 697.6226654165035 285.10220842298804Q696.0760142425586 286.64885959693305 696.2352283339941 290.4245080509753L696.2352283339941 290.4245080509753Q696.5536565168651 310.07607590815905 696.2352283339941 329.7276437653428L696.2352283339941 329.7276437653428Q696.0760142425586 340.37224302131733 695.7348411894824 351.0850768879071Q695.4164130066114 361.82065562470194 695.2571989151759 372.62446897211197L695.2571989151759 372.62446897211197Q695.2571989151759 377.53736093640794 695.9168001511231 379.7436133463001Q696.5536565168651 381.94986575619225 698.9418678883978 382.6094669921394Q701.3073343897255 383.2690682280865 706.2202263540215 383.2690682280865L706.2202263540215 383.2690682280865Q710.4735170823702 383.2690682280865 714.7495526809241 383.51926180034235Q719.0028434092729 383.76945537259815 723.2561341376218 384.0878835554692L723.2561341376218 384.0878835554692Q726.8498236300235 384.4063117383402 728.6694132464294 386.63530901843745Q730.4662579926302 388.8415614283296 730.3070439011946 392.1168227378602L730.3070439011946 392.1168227378602Q730.3070439011946 395.3920840473908 728.260005582738 397.279908274412Q726.2129672642814 399.14498763122805 722.9377059547508 399.14498763122805L722.9377059547508 399.14498763122805Q714.9087667723596 399.32694659286864 706.7888481091483 399.39518120348384Q698.691674316142 399.48616068430414 690.5035210423155 399.48616068430414L690.5035210423155 399.48616068430414L679.1993205503938 399.48616068430414Q673.3083991672797 399.64537477573964 667.5766918756011 400.054782439431Q661.8449845839225 400.46419010312235 655.9540632008084 400.3049760116868L655.9540632008084 400.3049760116868Q652.0192006553306 400.3049760116868 649.3125611009268 397.4391223658475Q646.6059215465231 394.57326872000823 646.7878805081637 391.13879331904207L646.7878805081637 391.13879331904207Q646.9470945995992 387.8635320095114 649.4717751923623 385.6345347294142Q652.0192006553306 383.42828231952205 656.2724913836794 383.2690682280865L656.2724913836794 383.2690682280865L670.5335250022607 383.2690682280865Q674.4456426775333 383.42828231952205 676.0832733322987 381.88163114557705Q677.7209039870639 380.3122351014269 677.5616898956285 376.4001174261542L677.5616898956285 376.4001174261542Q677.4024758041929 365.9147322616152 677.4934552850133 355.52032657789647Q677.5616898956285 345.1031760239727 677.5616898956285 334.64053572963877L677.5616898956285 334.64053572963877ZM694.0972105347172 396.37011346620903L694.0972105347172 396.37011346620903Q694.0972105347172 396.37011346620903 696.9630641805564 396.21089937477353Q699.8289178263957 396.05168528333803 704.2641675163851 395.86972632169744Q708.6766723361694 395.7105122302619 713.1801566367741 395.5512981388264Q717.6836409373786 395.3920840473908 721.1181163383447 395.3920840473908L721.1181163383447 395.3920840473908Q723.2561341376218 395.3920840473908 724.9847442732074 394.823462292264Q726.6906095385879 394.2320956669321 726.8498236300235 391.4572215019131L726.8498236300235 391.4572215019131Q727.031782591664 388.6823473368941 725.3031724560784 387.6815730478708Q723.5745623204928 386.70354362905266 721.3000752999855 386.70354362905266L721.3000752999855 386.70354362905266Q717.0240397014315 386.70354362905266 712.7025143624675 386.79452310987296Q708.3582441532984 386.8627577204882 704.1049534249496 386.8627577204882L704.1049534249496 386.8627577204882Q693.2783952073345 386.8627577204882 691.8227235142098 376.8777597004608L691.8227235142098 376.8777597004608Q691.1631222782627 372.1240818276004 691.0039081868271 367.4613834355602Q690.8219492251865 362.7986850435201 691.0039081868271 358.20422126209525L691.0039081868271 358.20422126209525Q691.1631222782627 349.37921162252655 691.5725299419539 340.44047763193254Q691.9819376056453 331.52448851154367 692.1411516970808 322.67673400176994L692.1411516970808 322.67673400176994Q692.1411516970808 313.6697654005607 691.9819376056453 304.6627967993515Q691.8227235142098 295.6558281981423 691.4815504611337 286.64885959693305L691.4815504611337 286.64885959693305Q691.4815504611337 283.69202647027345 692.8689875436431 282.46380347919944Q694.2791694963577 281.2355804881255 697.0540436613768 281.07636639669L697.0540436613768 281.07636639669Q705.2421969352033 281.07636639669 713.5895643004653 280.0983369778718L713.5895643004653 280.0983369778718Q715.2271949552307 279.9391228864363 717.2059986630721 280.1893164586921Q719.1620575007084 280.4167651607428 720.549494583218 279.6889293141804Q721.9369316657275 278.96109346761807 721.9369316657275 276.163474432394L721.9369316657275 276.163474432394Q721.9369316657275 272.41057084855686 719.4804856835796 271.34156194891835Q717.0240397014315 270.2725530492799 713.4303502090298 270.2725530492799L713.4303502090298 270.2725530492799Q712.7707489730827 270.1133389578444 712.2931066987761 270.1815735684596Q711.7927195542645 270.2725530492799 711.1331183183174 270.2725530492799L711.1331183183174 270.2725530492799Q697.7136448973239 270.59098123215097 684.3624060869455 270.93215428522706Q671.0111672765672 271.25058246809806 657.5916938555737 271.40979655953356L657.5916938555737 271.40979655953356Q654.9760337819902 271.40979655953356 652.9289954635336 272.3195913677365Q650.881957145077 273.22938617593945 651.0411712365125 276.5046474854701L651.0411712365125 276.5046474854701Q651.200385327948 279.7799087950008 653.3384031272249 280.4167651607428Q655.4536760562968 281.07636639669 658.0693361298803 280.91715230525443L658.0693361298803 280.91715230525443Q662.004198675358 280.5987241223834 665.8480817400155 280.4167651607428Q669.714709674878 280.2575510693073 673.4676132587152 280.0983369778718L673.4676132587152 280.0983369778718Q679.8589217863409 279.7799087950008 680.177349969212 285.9892583609859L680.177349969212 285.9892583609859Q680.5185230222882 289.42373376195206 680.9279306859794 292.88095403312326Q681.3373383496707 296.3154294340894 681.3373383496707 299.74990483505553L681.3373383496707 299.74990483505553Q681.4965524411062 319.2422586008038 681.5875319219266 338.734612366552Q681.6557665325417 358.20422126209525 681.4965524411062 377.69657502784344L681.4965524411062 377.69657502784344Q681.4965524411062 383.2690682280865 679.8589217863409 384.81571940203156Q678.2212911315756 386.3851154461816 672.489583839897 386.70354362905266L672.489583839897 386.70354362905266Q668.2362931115482 386.8627577204882 663.8920229023792 386.8627577204882Q659.5477526932101 386.8627577204882 655.1352478734258 387.3631448649998L655.1352478734258 387.3631448649998Q653.975259492967 387.5223589564353 652.5878224104575 388.5003883752535Q651.200385327948 389.5011626642767 651.0411712365125 390.6384061745304L651.0411712365125 390.6384061745304Q650.881957145077 391.7756496847841 652.0192006553306 393.25406624811393Q653.1564441655843 394.73248281144373 654.3164325460431 395.05091099431473L654.3164325460431 395.05091099431473Q656.2724913836794 395.7105122302619 658.4105091829564 396.05168528333803Q660.5257821120282 396.37011346620903 662.6637999113052 396.37011346620903L662.6637999113052 396.37011346620903Q670.5335250022607 396.52932755764454 678.3805052230111 396.46109294702933Q686.2502303139667 396.37011346620903 694.0972105347172 396.37011346620903ZM760.4212520527124 357.7265789877886L760.4212520527124 357.7265789877886Q756.8275625603106 357.38540593471254 754.0526883952917 357.1579572326618Q751.2550693600675 356.907763660406 748.4801951950486 356.4073765158944L748.4801951950486 356.4073765158944Q746.1829633043361 355.9297342415878 743.7265173221882 355.2701330056407Q741.2700713400402 354.6105317696935 738.9728394493278 353.63250235087537L738.9728394493278 353.63250235087537Q736.3571793757443 352.31329987898107 735.6293435291819 350.0160679882686Q734.8787628124145 347.74158096776125 735.5383640483616 345.1031760239727L735.5383640483616 345.1031760239727Q736.6756075586153 339.87185587680574 742.5892738119345 339.87185587680574L742.5892738119345 339.87185587680574Q746.8425645402832 340.03106996824124 751.2550693600675 339.87185587680574Q755.6903190500569 339.7126417853702 759.9436097784057 340.03106996824124L759.9436097784057 340.03106996824124Q763.696513362243 340.19028405967674 765.7435516806996 338.80284697716723Q767.7905899991563 337.4154098946578 768.950578379615 333.8217204022561L768.950578379615 333.8217204022561Q774.6822856712936 316.44463956557973 779.6634122462048 299.0903035991084Q784.6672836913209 281.7359676326371 787.6241168179805 263.72203043021864L787.6241168179805 263.72203043021864Q788.4429321453632 257.8311090471045 792.696222873712 253.57781831875573L792.696222873712 253.57781831875573Q795.9714841832426 250.1205980475845 799.9063467287205 250.93941337496716Q803.8184644039931 251.75822870234984 805.4560950587585 256.3526924837747L805.4560950587585 256.3526924837747Q806.7752975306528 260.28755502925253 807.3439192857796 264.449866276781Q807.9125410409064 268.6349223945146 808.7313563682891 272.72899903142786L808.7313563682891 272.72899903142786Q814.9634508044793 301.7059636726919 821.5139734235405 330.70567318416096L821.5139734235405 330.70567318416096Q822.1735746594877 333.9809344936916 824.2206129779444 335.04994339333007Q826.2676512964009 336.0962074227635 829.2017395528554 335.7777792398925L829.2017395528554 335.7777792398925Q831.0213291692613 335.4593510570214 832.477000862386 335.2091574847656Q833.9554174257158 334.9589639125098 835.5930480804813 335.1181780039453L835.5930480804813 335.1181780039453Q839.3686965345235 335.27739209538083 841.8933771272867 337.5746239860933Q844.440802590255 339.87185587680574 844.6000166816904 343.14711718633635L844.6000166816904 343.14711718633635Q844.9411897347665 346.2631644044315 842.8031719354896 349.12901805027076Q840.6651541362127 351.99487169611007 837.2306787352466 352.8136870234927L837.2306787352466 352.8136870234927Q835.4338339890456 353.1321152063637 833.2958161897687 353.2230946871841Q831.1805432606969 353.2913292977993 829.2017395528554 353.2913292977993L829.2017395528554 353.2913292977993Q822.3327887509232 353.63250235087537 823.9704194056885 360.34223906137214L823.9704194056885 360.34223906137214Q825.2896218775828 365.9147322616152 826.8362730515279 371.3052665002177Q828.3829242254728 376.7185456090253 829.0425254614199 382.4502529007039L829.0425254614199 382.4502529007039Q830.3617279333142 388.6823473368941 827.9052819511663 395.5512981388264L827.9052819511663 395.5512981388264Q827.2456807152191 397.34814288502724 824.7892347330711 399.0767530206128Q822.3327887509232 400.78261828599335 820.3767299132868 400.78261828599335L820.3767299132868 400.78261828599335Q818.5571402968809 400.78261828599335 816.2826532763735 399.0767530206128Q813.9854213856612 397.34814288502724 812.8254330052024 395.5512981388264L812.8254330052024 395.5512981388264Q811.5289754035131 393.7544533926255 811.2787818312573 391.13879331904207Q811.0285882590015 388.5003883752535 810.7101600761305 385.88472830167L810.7101600761305 385.88472830167Q810.0505588401834 379.6753787356849 809.2317435128007 373.4432842994947Q808.4129281854181 367.2111898633044 807.5941128580354 361.1610543887548L807.5941128580354 361.1610543887548Q807.0937257135238 357.22619184327704 805.1376668758874 355.42934709707623Q803.181608038251 353.63250235087537 799.0875314013377 354.11014462518193L799.0875314013377 354.11014462518193Q797.4499007465724 354.2921035868225 795.7212906109868 354.2011241060022Q793.9926804754012 354.11014462518193 792.1958357292004 354.11014462518193L792.1958357292004 354.11014462518193Q787.2829437649045 354.11014462518193 784.7582631721413 354.769745861129Q782.210837709173 355.42934709707623 780.8916352372787 357.6355995069684Q779.5951776355895 359.84185191686055 778.1167610722597 364.75474388115646L778.1167610722597 364.75474388115646Q776.4791304174944 371.14605240878217 774.5913061904733 377.28716736415214Q772.7034819634522 383.42828231952205 770.5882090343803 389.5011626642767L770.5882090343803 389.5011626642767Q769.1097924710506 393.913667484061 766.4941323974671 397.34814288502724L766.4941323974671 397.34814288502724Q764.3561145981901 400.3049760116868 761.581240433171 400.62340419455785Q758.7836213979471 400.96457724763394 755.6903190500569 399.80458886717514L755.6903190500569 399.80458886717514Q752.5742718319618 398.6673453569215 751.0048757878118 396.52932755764454Q749.4582246138667 394.4140546285727 750.1178258498138 391.29800741047757L750.1178258498138 391.29800741047757Q751.7554565045792 385.22512706572286 753.6432807316004 379.42518516342903Q755.5083600884165 373.6024983909302 757.1459907431816 367.71157700781606L757.1459907431816 367.71157700781606Q757.9648060705644 365.4143451171036 758.7153867873318 362.8896645243404Q759.4432226338942 360.34223906137214 760.4212520527124 357.7265789877886ZM829.7021266973671 349.6976398053976L829.7021266973671 349.6976398053976Q831.4989714435679 349.6976398053976 833.2958161897687 349.7886192862179Q835.1154058061746 349.8568538968331 836.5710774992993 349.19725266088597L836.5710774992993 349.19725266088597Q837.8902799711936 348.5603962951439 839.527910625959 347.15021434242936Q841.1655412807244 345.76277725991986 841.0063271892888 344.1251466051545L841.0063271892888 344.1251466051545Q840.8471130978533 342.6467300418247 839.1185029622676 341.75968010382684Q837.3898928266821 340.8498852956239 835.9342211335573 340.5314571127529L835.9342211335573 340.5314571127529Q833.7962033342804 340.03106996824124 831.3397573521324 340.12204944906154Q828.8833113699844 340.19028405967674 826.4268653878365 340.03106996824124L826.4268653878365 340.03106996824124Q823.1516040783059 339.7126417853702 820.7861375769781 338.1432457412201Q818.3979262054455 336.5965945672751 817.5791108780628 333.16211916630897L817.5791108780628 333.16211916630897Q813.9854213856612 318.74187145629213 811.1195677398218 303.593787899713Q808.2537140939825 288.44570434313385 804.9784527844519 274.04820150332216L804.9784527844519 274.04820150332216Q804.3188515485048 270.77294019379156 803.8184644039931 267.90708654795225Q803.3408221296866 265.04123290211294 802.840434985175 261.92518568401783L802.840434985175 261.92518568401783Q802.522006802304 260.28755502925253 800.9526107581538 258.3997308022314Q799.4059595842087 256.5119065752103 797.7683289294434 256.3526924837747L797.7683289294434 256.3526924837747Q796.2899123661138 255.85230533926313 794.811495802784 258.1495372299756Q793.3558241096592 260.44676912068803 792.4460293014562 263.1534086750918Q791.5362344932533 265.8600482294956 791.2178063103822 266.67886355687824L791.2178063103822 266.67886355687824Q786.6233425289573 283.53281237883795 781.9606441369173 300.5687201624382Q777.2979457448771 317.6046279460385 772.5442678720167 334.64053572963877L772.5442678720167 334.64053572963877Q770.9066372172514 340.6906712041884 768.1999976628475 342.3283018589537Q765.5161029786489 343.965932513719 758.9655803595875 343.4655453692074L758.9655803595875 343.4655453692074Q755.3491459969808 343.14711718633635 751.7554565045792 342.8286890034653Q748.1390221419725 342.4875159503892 744.7045467410063 342.6467300418247L744.7045467410063 342.6467300418247Q743.4080891393171 342.8286890034653 741.8386930951671 343.647504330848Q740.292041921222 344.46631965823065 739.9508688681459 345.92199135135536L739.9508688681459 345.92199135135536Q739.7916547767104 347.40040791468516 741.3610508208604 348.7196103865794Q742.9077019948055 350.0160679882686 744.0449455050592 350.3572410413447L744.0449455050592 350.3572410413447Q747.0017786317188 351.1760563687274 750.0268463689936 351.4262499409832Q753.0519141062684 351.6536986430339 756.0087472329279 351.8356576046745L756.0087472329279 351.8356576046745Q762.4000557605538 352.4725139704166 764.1059210259342 354.8607253419494Q765.8345311615199 357.22619184327704 764.3561145981901 363.29907218803174L764.3561145981901 363.29907218803174Q764.0376864153191 364.59552978972096 763.3780851793719 365.9829668722304Q762.7184839434248 367.393148824945 762.2408416691183 368.68960642663427L762.2408416691183 368.68960642663427Q760.4212520527124 373.94367144400627 758.5561726958963 379.17499159117324Q756.6683484688751 384.4063117383402 754.8715037226743 389.5011626642767L754.8715037226743 389.5011626642767Q754.2119024867272 391.6164355933486 754.1209230059069 393.59523930119Q754.0526883952917 395.5512981388264 756.6683484688751 396.68854164908004L756.6683484688751 396.68854164908004Q759.4432226338942 397.84853002953884 761.8314340054269 397.0979493127714Q764.1969005067546 396.37011346620903 765.3341440170083 393.7544533926255L765.3341440170083 393.7544533926255Q766.6533464889026 391.29800741047757 767.5631412971055 388.6823473368941Q768.4501912351034 386.0439423931055 769.1097924710506 383.42828231952205L769.1097924710506 383.42828231952205Q770.9066372172514 377.2189327535369 772.3850537805812 370.98683831734667Q773.863470343911 364.75474388115646 775.3418869072408 358.3861802237358L775.3418869072408 358.3861802237358Q777.6163739277481 350.1980269499092 786.6233425289573 349.8568538968331L786.6233425289573 349.8568538968331Q790.3989909829996 349.6976398053976 794.3338535284773 349.6976398053976Q798.2687160739551 349.6976398053976 802.0216196577923 349.5384257139621L802.0216196577923 349.5384257139621Q809.7321306573123 349.03803856945046 811.0285882590015 356.4073765158944L811.0285882590015 356.4073765158944Q812.0066176778197 362.4802568606491 812.7571983945871 368.4394128543784Q813.4850342411495 374.42131371831283 814.1446354770966 380.4941940630675L814.1446354770966 380.4941940630675Q814.4630636599676 383.109854136651 814.7132572322236 385.8164936910548Q814.9634508044793 388.5003883752535 815.782266131862 391.13879331904207L815.782266131862 391.13879331904207Q816.100694314733 392.77642397380737 817.4198967866272 394.3230751477524Q818.7390992585216 395.86972632169744 820.8543721875934 395.5512981388264L820.8543721875934 395.5512981388264Q822.8331758954348 395.2328699559553 823.8794399248683 394.0046469648814Q824.9484488245067 392.77642397380737 825.2896218775828 391.4572215019131L825.2896218775828 391.4572215019131Q825.7672641518893 389.0007755197651 825.9264782433248 386.29413596536136Q826.1084372049655 383.58749641095756 825.6080500604538 381.4722234818857L825.6080500604538 381.4722234818857Q824.4708065502001 375.399343137131 822.7421964146146 369.44018714340166Q821.0135862790289 363.45828627946725 819.5579145859042 357.38540593471254L819.5579145859042 357.38540593471254Q818.7390992585216 353.63250235087537 820.0355568602107 351.8356576046745Q821.354759332105 350.0160679882686 824.9484488245067 349.6976398053976L824.9484488245067 349.6976398053976Q826.1084372049655 349.5384257139621 827.3366601960394 349.6066603245773Q828.5648831871134 349.6976398053976 829.7021266973671 349.6976398053976ZM785.8045272015747 340.6906712041884L785.8045272015747 340.6906712041884Q782.3700518006085 341.0090993870594 781.6422159540462 339.5534276939347Q780.8916352372787 338.0750111306049 781.5512364732259 335.27739209538083L781.5512364732259 335.27739209538083Q783.6892542725028 328.249227202013 785.6453131101392 321.28929691926044Q787.6241168179805 314.32936663650787 789.7393897470524 307.27845687293495L789.7393897470524 307.27845687293495Q790.3989909829996 305.3223980352986 790.8993781275112 303.11614562540643Q791.3770204018177 300.88714834530924 792.7644574843272 299.43147665218453Q794.1746394370418 297.9530600888547 797.1087276934963 297.9530600888547L797.1087276934963 297.9530600888547Q801.3620184218452 297.9530600888547 802.522006802304 301.06910730694983Q803.6592503125577 304.16240965483985 804.3188515485048 307.11924278149945L804.3188515485048 307.11924278149945Q805.9564822032701 313.5105513091252 806.9345116220883 319.97009444736614Q807.9125410409064 326.45238245581214 808.7313563682891 333.00290507487347L808.7313563682891 333.00290507487347Q809.2317435128007 337.0969817117867 807.503133377215 338.734612366552Q805.7972681118346 340.37224302131733 801.7031914749213 340.5314571127529L801.7031914749213 340.5314571127529Q799.5651736756444 340.6906712041884 797.4499007465724 340.59969172336804Q795.3118829472955 340.5314571127529 793.1738651480185 340.5314571127529L793.1738651480185 340.5314571127529Q793.1738651480185 340.5314571127529 790.3989909829996 340.5314571127529Q787.6241168179805 340.5314571127529 785.8045272015747 340.6906712041884ZM787.7833309094161 335.4593510570214L802.522006802304 335.4593510570214Q802.0216196577923 331.52448851154367 801.3620184218452 326.20218888355635Q800.7251620561032 320.8798892555691 800.065560820156 315.625824238197Q799.4059595842087 310.39450409103006 798.6781237376465 306.96002869006395Q797.927543020879 303.5255532890978 797.1087276934963 303.5255532890978L797.1087276934963 303.5255532890978Q795.6303111301665 303.5255532890978 794.4020881390926 306.96002869006395Q793.1738651480185 310.39450409103006 792.0366216377649 315.625824238197Q790.8993781275112 320.8798892555691 789.8303692278728 326.20218888355635Q788.7613603282343 331.52448851154367 787.7833309094161 335.4593510570214L787.7833309094161 335.4593510570214ZM901.5986614156053 325.95199531130055L903.8958933063178 325.95199531130055Q908.3083981261021 319.71990087511034 912.902861907527 313.5105513091252Q917.4745808187469 307.27845687293495 921.7278715470957 300.88714834530924L921.7278715470957 300.88714834530924Q926.8227224730322 293.6997693605059 931.5536554756876 286.330431414062Q936.307333348548 278.96109346761807 941.2202253128439 271.59175552117415L941.2202253128439 271.59175552117415Q942.0390406402265 270.2725530492799 943.2672636313006 268.7941364859501Q944.4954866223745 267.3157199226203 945.8146890942688 266.83807764831374L945.8146890942688 266.83807764831374Q948.1119209849813 266.01926232093115 950.6366015777445 265.678089267855Q953.1840270407127 265.35966108498394 955.4812589314253 265.8600482294956L955.4812589314253 265.8600482294956Q956.4592883502434 266.01926232093115 957.3463382882412 268.3847288222588Q958.2561330964442 270.77294019379156 958.2561330964442 272.56978493999236L958.2561330964442 272.56978493999236Q958.0969190050087 295.1554410536306 957.6875113413173 317.763842037474Q957.2781036776261 340.37224302131733 956.93693062455 362.95789913495565L956.93693062455 362.95789913495565Q956.93693062455 368.5303923351987 957.2781036776261 374.17112014605704Q957.5965318604971 379.8345928271204 958.0969190050087 385.4070860273635L958.0969190050087 385.4070860273635Q958.2561330964442 390.3199779916594 955.9589012057318 394.0728815754966Q953.6616693150194 397.84853002953884 948.9307363123639 399.32694659286864L948.9307363123639 399.32694659286864Q944.1770584395035 400.78261828599335 940.7425830385374 398.6673453569215Q937.2853627673661 396.52932755764454 936.4665474399834 391.6164355933486L936.4665474399834 391.6164355933486Q936.1481192571124 389.1599896112006 936.1481192571124 386.63530901843745Q936.1481192571124 384.0878835554692 936.1481192571124 381.6314375733212L936.1481192571124 381.6314375733212Q936.4665474399834 368.8488205180697 936.8759551036749 356.0889483330233Q937.2853627673661 343.30633127777185 937.4673217290068 330.36450013108487L937.4673217290068 330.36450013108487Q937.4673217290068 327.7488400575014 937.1261486759307 325.1331799839179Q936.8077204930597 322.51751991033444 936.4665474399834 319.90185983675093L936.4665474399834 319.90185983675093Q936.1481192571124 319.90185983675093 935.1700898382943 319.56068678367484L935.1700898382943 319.56068678367484Q932.5544297647108 322.3583058188989 930.0070043017425 325.2241594647382Q927.4595788387743 328.0900131105775 925.1850918182669 331.3652744201081L925.1850918182669 331.3652744201081Q921.7278715470957 335.6185651484569 918.5435897183853 340.12204944906154Q915.359307889675 344.62553374966615 912.0840465801444 349.03803856945046L912.0840465801444 349.03803856945046Q906.9891956542078 355.74777527994723 902.417476742988 355.83875476076753Q897.8230129615631 355.9297342415878 892.7509069058317 349.03803856945046L892.7509069058317 349.03803856945046Q888.8160443603539 343.647504330848 885.3815689593878 337.6656034669136Q881.9470935584217 331.68370260297917 878.330659195815 325.95199531130055L878.330659195815 325.95199531130055Q877.6938028300727 324.9739658924824 876.9432221133053 323.99593647366424Q876.2153862667429 322.99516218464095 874.7369697034131 322.3583058188989L874.7369697034131 322.3583058188989L874.7369697034131 347.90079505919675Q874.7369697034131 352.15408578754557 874.8961837948488 356.5665906073299Q875.0553978862843 361.0018402973193 875.0553978862843 365.4143451171036L875.0553978862843 365.4143451171036Q875.2373568479248 368.5303923351987 875.3055914585401 371.5554600724735Q875.3965709393603 374.58052780974833 875.2373568479248 377.69657502784344L875.2373568479248 377.69657502784344Q875.0553978862843 381.3130093904502 874.9871632756691 384.7474847914163Q874.8961837948488 388.18196019238246 874.2365825589015 391.6164355933486L874.2365825589015 391.6164355933486Q873.5997261931594 395.3920840473908 870.3926994942441 397.50735697646275Q867.2084176655338 399.64537477573964 863.4327692114915 399.32694659286864L863.4327692114915 399.32694659286864Q859.0202643917072 398.98577353979255 856.3136248373035 396.52932755764454Q853.6069852828997 394.0728815754966 853.6069852828997 389.66037675571226L853.6069852828997 389.66037675571226Q853.6069852828997 381.3130093904502 853.8571788551554 372.62446897211197Q854.1073724274112 363.9359285537738 854.2665865188468 355.42934709707623L854.2665865188468 355.42934709707623Q854.2665865188468 352.9729011149282 854.5167800911025 350.42547565195997Q854.7669736633584 347.90079505919675 854.5850147017178 345.2851349856133L854.5850147017178 345.2851349856133Q854.1073724274112 331.1833154584675 853.6069852828997 317.1042408015268Q853.1293430085931 303.0251661445862 852.6289558640814 288.9460914876455L852.6289558640814 288.9460914876455Q852.469741772646 285.17044303360325 852.8791494363373 281.4857740603813Q853.2885571000287 277.8011050871593 853.4477711914641 274.20741559475766L853.4477711914641 274.20741559475766Q853.6069852828997 266.67886355687824 861.3174962824197 265.35966108498394L861.3174962824197 265.35966108498394Q869.3236905946056 263.88124452165414 872.9401249572123 271.25058246809806L872.9401249572123 271.25058246809806Q876.8749875026903 279.5979498333602 880.7188705673476 287.9680620688273Q884.5627536320052 296.3154294340894 888.8160443603539 304.50358270791594L888.8160443603539 304.50358270791594Q891.613663395578 310.07607590815905 895.0481387965441 315.3983755361463Q898.4826141975103 320.7206751641336 901.5986614156053 325.95199531130055L901.5986614156053 325.95199531130055ZM939.9237677111547 369.84959480709296L939.9237677111547 369.84959480709296Q940.2421958940257 374.42131371831283 940.4014099854613 379.26597107199353Q940.5606240768968 384.0878835554692 941.3794394042794 388.5003883752535L941.3794394042794 388.5003883752535Q941.8798265487911 390.3199779916594 943.6766712949919 392.5262304015516Q945.4735160411927 394.73248281144373 947.111146695958 394.73248281144373L947.111146695958 394.73248281144373Q948.9307363123639 394.73248281144373 950.79581566918 392.8446585844226Q952.683639896201 390.9568343574015 953.8436282766598 389.1599896112006L953.8436282766598 389.1599896112006Q954.4804846424018 388.02274610094696 954.3212705509665 386.3851154461816Q954.1620564595308 384.7474847914163 953.8436282766598 383.2690682280865L953.8436282766598 383.2690682280865Q951.387182294512 375.399343137131 951.8648245688186 367.4613834355602Q952.36521171333 359.5234237339895 952.5244258047657 351.4944845515984L952.5244258047657 351.4944845515984Q953.3432411321481 332.5025179303618 953.6616693150194 313.41957182830487Q954.0028423680955 294.336625726248 954.1620564595308 275.3446591050114L954.1620564595308 275.3446591050114Q954.1620564595308 273.70702845024607 953.5024552235838 271.6599901317894Q952.8428539876367 269.61295181333276 951.2052233328712 269.29452363046175L951.2052233328712 269.29452363046175Q949.5675926781059 268.7941364859501 947.8617274127255 270.1815735684596Q946.1331172771398 271.59175552117415 945.3143019497571 272.88821312286336L945.3143019497571 272.88821312286336Q935.3293039297299 286.64885959693305 925.5944994819582 300.4777406816179Q915.8369501639817 314.32936663650787 906.1703803268252 328.249227202013L906.1703803268252 328.249227202013Q901.9170895984764 334.64053572963877 898.1641860146393 328.249227202013L898.1641860146393 328.249227202013Q894.8889247051086 322.51751991033444 891.6818980061933 316.85404722927103Q888.4976161774829 311.2133194184127 885.5407830508233 305.48161212673415L885.5407830508233 305.48161212673415Q881.44670641391 297.7938459974192 877.6028233492526 289.83314142564336Q873.758940284595 281.89518172407264 869.5056495562463 274.20741559475766L869.5056495562463 274.20741559475766Q868.3456611757875 271.9101837040452 866.2986228573309 270.1133389578444Q864.2515845388742 268.31649421164354 860.9763232293436 269.45373772189726L860.9763232293436 269.45373772189726Q857.701061919813 270.59098123215097 857.3826337369419 272.9791926036837Q857.0414606838658 275.3446591050114 857.2234196455064 277.9603191785949L857.2234196455064 277.9603191785949Q857.5418478283774 289.105305579081 857.8602760112484 300.3185265901824Q858.2014490643246 311.53174760128377 858.0422349728891 322.67673400176994L858.0422349728891 322.67673400176994Q858.0422349728891 338.734612366552 857.450868347557 354.769745861129Q856.8822465924303 370.82762422591117 856.4046043181238 386.8627577204882L856.4046043181238 386.8627577204882Q856.2226453564832 390.4791920830949 858.1104695835044 393.18583163749867Q859.9982938105254 395.86972632169744 862.6139538841088 396.21089937477353L862.6139538841088 396.21089937477353Q865.8892151936395 396.37011346620903 868.5958547480433 394.1638610563169Q871.3024943024471 391.9576086464247 871.4617083938825 388.341174283818L871.4617083938825 388.341174283818Q871.7801365767535 386.54432953761716 871.6209224853181 384.99767836367215Q871.4617083938825 383.42828231952205 871.3024943024471 381.7906516647567L871.3024943024471 381.7906516647567Q870.9613212493709 375.08091495426 870.3926994942441 368.37117824376315Q869.8240777391173 361.66144153326644 869.6648636476817 354.9289599525646L869.6648636476817 354.9289599525646Q869.1644765031701 345.76277725991986 868.9142829309143 336.68757404809537Q868.6868342288636 327.58962596606585 868.5048752672229 318.58265736485663L868.5048752672229 318.58265736485663Q868.5048752672229 317.1042408015268 869.0962418925549 314.988967872455Q869.6648636476817 312.85095007317807 871.3024943024471 312.3505629286664L871.3024943024471 312.3505629286664Q872.780910865777 311.87292065435986 874.1683479482864 313.1693782560491Q875.5557850307958 314.4885807279434 876.2153862667429 315.8077831998376L876.2153862667429 315.8077831998376Q881.2874923224746 323.33633523771704 886.0411701953349 330.9558667564168Q890.7948480681953 338.55265340491144 895.8669541239268 346.2631644044315L895.8669541239268 346.2631644044315Q901.9170895984764 355.42934709707623 908.6268263089731 347.0819797318141L908.6268263089731 347.0819797318141Q914.699706653728 339.3714687322941 920.4996485560217 331.84291669441467Q926.3223353285206 324.31436465653525 932.3724708030703 316.7858126186558L932.3724708030703 316.7858126186558Q934.1920604194762 314.4885807279434 935.8296910742414 313.01016416461357L935.8296910742414 313.01016416461357Q937.6265358204422 311.37253350984827 938.9229934221315 312.0321347457954Q940.2421958940257 312.6917359817425 940.7425830385374 314.80700891081443L940.7425830385374 314.80700891081443Q941.0610112214084 315.9669972912732 941.1519907022287 317.2634548929624Q941.2202253128439 318.58265736485663 941.2202253128439 319.90185983675093L941.2202253128439 319.90185983675093Q941.2202253128439 324.81475180104684 941.1519907022287 331.3652744201081Q941.0610112214084 337.9157970391694 940.9017971299729 344.62553374966615Q940.7425830385374 351.3352704601629 940.5606240768968 357.06697775184153Q940.4014099854613 362.7986850435201 940.2421958940257 366.32413992530655Q940.0829818025903 369.84959480709296 939.9237677111547 369.84959480709296Z " fill="#00d08b" transform="matrix(0.9131170060462792,0,0,0.913117006046279,0,2.522337442105254)"/></g></svg>